/* XPM */
static char *bibas61022_1_removebg_preview_resized[] = {
/* columns rows colors chars-per-pixel */
"50 50 217 2 ",
"   c #0B0404",
".  c #0E0708",
"X  c #16070B",
"o  c #15090A",
"O  c #1A0C0D",
"+  c #1C0F12",
"@  c #1E1213",
"#  c #230F0F",
"$  c #240F13",
"%  c #241215",
"&  c #2B1416",
"*  c #2B161A",
"=  c #281818",
"-  c #2D1A1D",
";  c #341818",
":  c #331B1D",
">  c #351E21",
",  c #3A1D21",
"<  c #342124",
"1  c #3B2226",
"2  c #332729",
"3  c #3D252A",
"4  c #3E292C",
"5  c #4B261C",
"6  c #592A1D",
"7  c #6D2F19",
"8  c #762D17",
"9  c #782F17",
"0  c #732C1A",
"q  c #792D18",
"w  c #6D321D",
"e  c #7C3115",
"r  c #793618",
"t  c #7B341A",
"y  c #472726",
"u  c #44262B",
"i  c #442A2D",
"p  c #4B292E",
"a  c #5A2E27",
"s  c #5A322B",
"d  c #462D31",
"f  c #4B2D32",
"g  c #522E34",
"h  c #463134",
"j  c #4C3136",
"k  c #4D363A",
"l  c #523136",
"z  c #54353B",
"x  c #5A363C",
"c  c #56393E",
"v  c #5A393E",
"b  c #683424",
"n  c #753A25",
"m  c #623632",
"M  c #623C3C",
"N  c #733E33",
"B  c #7A412A",
"V  c #7A4536",
"C  c #563E43",
"Z  c #5B3C42",
"A  c #643A42",
"S  c #683E47",
"D  c #45454B",
"F  c #584146",
"G  c #56555B",
"H  c #624046",
"J  c #63444A",
"K  c #6A444C",
"L  c #62494E",
"P  c #6D494B",
"I  c #72474F",
"U  c #79514C",
"Y  c #674851",
"T  c #6D4B52",
"R  c #744C53",
"E  c #784C55",
"W  c #6E5057",
"Q  c #695258",
"!  c #725057",
"~  c #75555C",
"^  c #7B545B",
"/  c #7C5658",
"(  c #575865",
")  c #655D64",
"_  c #7C5C62",
"`  c #7A5A64",
"'  c #65656F",
"]  c #646573",
"[  c #74737C",
"{  c #893B0F",
"}  c #833616",
"|  c #863815",
" . c #8A3B15",
".. c #823519",
"X. c #83391A",
"o. c #903E19",
"O. c #833C22",
"+. c #93420F",
"@. c #8E4113",
"#. c #89421A",
"$. c #944212",
"%. c #994513",
"&. c #9D4916",
"*. c #984519",
"=. c #A24B16",
"-. c #A34B1A",
";. c #A74C19",
":. c #AF5217",
">. c #AC521B",
",. c #B3561D",
"<. c #B6581E",
"1. c #BB5B1E",
"2. c #8A4728",
"3. c #984E27",
"4. c #854A38",
"5. c #904F30",
"6. c #8E543E",
"7. c #9C5A39",
"8. c #A54C21",
"9. c #AD5323",
"0. c #AB5826",
"q. c #A65528",
"w. c #B45621",
"e. c #B85721",
"r. c #B65921",
"t. c #BB5B22",
"y. c #A75A32",
"u. c #B35E31",
"i. c #B5602F",
"p. c #BC622B",
"a. c #B9683B",
"s. c #C05E1F",
"d. c #C25E23",
"f. c #C25F28",
"g. c #C56224",
"h. c #CD6626",
"j. c #CF6827",
"k. c #C46328",
"l. c #CE6728",
"z. c #C5682D",
"x. c #CE6829",
"c. c #D06626",
"v. c #D06926",
"b. c #D06628",
"n. c #D06828",
"m. c #C36A34",
"M. c #CC6D33",
"N. c #D06B30",
"B. c #CC713C",
"V. c #8A5648",
"C. c #955C47",
"Z. c #85555E",
"A. c #856158",
"S. c #9A6557",
"D. c #966953",
"F. c #A66344",
"G. c #B66D48",
"H. c #A86C57",
"J. c #AC745A",
"K. c #B87458",
"L. c #845761",
"P. c #835C64",
"I. c #895C66",
"U. c #8A5D66",
"Y. c #8E5F68",
"T. c #905F68",
"R. c #82656B",
"E. c #896669",
"W. c #8C636C",
"Q. c #93646D",
"!. c #84706D",
"~. c #9F7367",
"^. c #886570",
"/. c #866973",
"(. c #8D6C73",
"). c #966771",
"_. c #936B73",
"`. c #9D6B75",
"'. c #8D7277",
"]. c #947177",
"[. c #94737B",
"{. c #9B737B",
"}. c #A37262",
"|. c #AC7363",
" X c #B17B6B",
".X c #A2737C",
"XX c #A57878",
"oX c #CD7544",
"OX c #C97749",
"+X c #C57D60",
"@X c #AA817C",
"#X c #B38274",
"$X c #C98666",
"%X c #7A7980",
"&X c #8B7880",
"*X c #967980",
"=X c #A77D85",
"-X c #8B858B",
";X c #8B8B97",
":X c #98929C",
">X c #A68488",
",X c #A8838B",
"<X c #B7888A",
"1X c #AB8C96",
"2X c #B18790",
"3X c #B48A93",
"4X c #A79494",
"5X c #BB969B",
"6X c #B69AA1",
"7X c #BC9DA5",
"8X c #A5A4A8",
"9X c #B6A8B3",
"0X c #BAB9BC",
"qX c #C79589",
"wX c #C0989C",
"eX c #C5A3A8",
"rX c #D8D8D9",
/* pixels */
">.,.>.,.,.,.,.,.>.,.,.,.,.>.,.,.,.,.,.,.>.,.,.,.,.,.,.>.,.,.,.,.,.,.>.,.,.,.,.;.%.+.{ 9 8 { o.:.:.,.",
"g.g.h.h.h.g.h.g.h.h.g.h.k.h.g.h.h.k.h.g.h.h.h.g.h.k.h.h.k.h.g.h.h.h.h.g.g.d.g.g.1.,.%.| 8 } o.<.h.d.",
"g.j.j.v.j.j.j.j.v.n.h.v.v.j.j.j.v.j.j.j.c.j.c.h.j.h.j.j.x.h.j.j.j.h.j.j.g.,.g.x.b.d.,.+.e { %.1.h.h.",
"k.a.z.v.c.c.h.j.c.c.c.c.j.v.c.c.c.h.j.j.c.c.b.c.j.j.h.b.c.h.x.x.x.j.h.j.g.g.k.x.k.t.>.{ 9  .%.s.h.c.",
"p.}.[ J.OXB.M.h.b.b.b.c.b.b.b.b.j.h.n.l.h.h.n.h.l.x.x.l.h.h.n.n.c.h.h.1.;.<.h.c.h.h.<.o.} } o.<.h.k.",
"g.a.Q ' -X8X4X$XoXn.n.b.b.b.b.b.x.b.l.b.h.b.n.b.h.l.x.l.n.h.j.c.h.h.h.t.:.1.k.c.h.h.s.o.| { %.1.h.f.",
"g.j./ G ( ] ;X9X6X$XN.b.n.b.b.b.x.l.l.b.b.l.h.h.c.n.j.v.h.h.h.h.c.h.g.k.g.g.d.d.d.d.8.| e } { s.d.c.",
"g.j.A.( [ %X] ] ;X:XqXoXl.l.b.b.n.c.c.h.n.b.v.h.h.k.g.j.h.h.h.h.g.k.d.d.d.t.e.<.>.8.-.} 8 e o.,.d.g.",
"g.v.7.[ :X8X8X' ' ;X:X5X$XoXN.b.c.b.b.v.b.b.c.c.d.;.>.g.j.j.j.h.h.h.h.l.k.h.g.h.g.s.:.o.9 } %.<.h.h.",
"p.j.a.@X0XrX8X' D G ) 4XeXwXqXoXc.c.c.v.x.l.c.c.g.>.,.g.j.j.j.h.h.c.h.c.c.h.h.g.s.:.&.{ ..{ %.,.s.s.",
"r.1.1.D./.:X0X%XG F W.=X6X6X6XqXm.e.<.<.e.e.e.e.<.,.,.r.<.r.<.<.e.e.e.,.e.e.w.-.%.{ {  .9 ..$.;.,.,.",
"r r  .B ^ P.&X-XG ~ Q.{.=X].6X9X6XH.O.| } X.| } } } X.} } } | ..X.| } | | } ....e } q 8 0 8 e } ..} ",
"| } | | N ^ ^././._..XW.J Q.=X2X5X1XXX6.} | | |  .|  .| |  .| } |  .| |  .X.| | { | | | | X.|  .| | ",
"w.,.<.r.e.4.Y P.).).S g L.`.E `.7X7XeXwX|.u.,.,.,.r.<.<.r.<.<.<.<.e.e.e.e.e.e.,.,.<.<.e.e.w.w.<.,.e.",
"g.g.h.h.b.k.6.P.` A S Y.`.E Z..X3X3X=XwX3XXXK.oXM.l.l.h.h.c.c.c.h.c.h.l.h.h.l.h.h.b.c.c.h.h.l.l.c.h.",
"g.h.j.j.l.h.g.F.^ l x L.T.S Q..XT.Z.=X=X{..X,X<X<X+Xx.c.c.h.h.b.x.n.h.v.c.h.l.l.l.c.h.b.l.l.l.n.c.h.",
"g.h.h.b.c.d.d.d.q.K S E Z.Z.Y.).A I.I.E =X=X^ (.~ W.$Xx.l.l.l.n.x.x.l.n.b.c.h.h.h.h.v.h.l.x.h.l.h.c.",
"g.h.c.b.c.c.c.c.h.u.V.R A I Y.^ A Z.S Q.=X^ p , j ].3X|.z.b.b.l.n.x.x.l.h.h.1.s.h.h.h.v.b.c.l.h.c.h.",
"g.h.c.h.c.c.c.c.h.d.f.4.x M Q.I A E Z.Z.M i j = % T _ k F.n.l.l.b.x.h.h.c.k.:.:.h.h.j.j.h.h.g.1.k.v.",
"g.k.h.c.c.d.d.f.f.d.e.w.N Z ^ A S T.T.A i H P : . j ^ E.XXM.h.b.k.K.B.h.h.h.g.g.h.h.j.j.l.h.d.<.g.h.",
"k.h.h.v.c.c.f.f.f.d.d.d.0.4.T S E E I - d Z j j Q T d _ _ J.v.c.j.7.C.oXB.j.j.j.h.h.h.b.n.b.h.h.j.x.",
"k.c.h.c.c.c.c.h.h.h.c.h.h.9.V P A E K z z Z Z T v i Y _ _ ].K.h.g.p.U ].OXh.j.h.l.h.l.h.h.h.h.x.n.x.",
"g.h.h.c.c.c.h.1.<.k.h.c.g.;.@.V K U.U.f : d z * h ! ~ J h C (.|.a.p.0.S.G.h.h.h.x.n.x.h.<.1.h.c.c.c.",
"k.l.h.h.c.c.d.s.,.d.s.:.=.$.|  .I E W.I f 3 # < j < % < d 4 - Z !.~.K.F.6.u.c.v.h.h.h.h.,.1.h.h.j.h.",
"r.e.e.t.t.t.t.e.e.>.=.{ {  .e e o.V P l & = 1 C d = - 4 F '.!.'.[.[.*X@X~.A.a.t.t.t.1.1.<.1.1.1.t.t.",
"X.|  .|  . . . .| | | } } e 0 8 e X.a ; * < < 4 c ! R.].E.[.(.~ R ! (.{.>X>XXXC. . . . . . . . . .| ",
"e 9 e e e e ..e e e e e 9 e 9 e e e r 6 & O o . O : d 4 1 c , & < p l c / {.]..XO.e r e e t e e e 0 ",
"$.$.+.$.$.+.+.$.$.$.$.$.+.+.$.$.$.+.+.+.r y 4 - O % > 1 1 =     o . o < T ^ _ _.C.$.$.$.$.$.o.{ e 8 ",
"<.1.1.t.t.t.1.1.1.t.1.1.s.s.s.t.1.p.1.1.p.B < p f l l i O     o % 2 i j R c ! (.>XJ.J.G.G.a.0.&.| 0 ",
"g.h.j.x.h.x.j.v.h.h.j.h.g.h.h.h.h.h.h.h.j.i.P h d < = = = : < i c ^ (._._.^ ! W T '.*X_ R.Z.S.3.| 9 ",
"g.h.c.h.h.j.j.h.j.x.x.j.h.h.j.j.j.j.h.h.j.h.F.~ l % O @ < < i p > Z ^ Z.T J R.W C (.[.F 1 - 3 V @.} ",
"k.h.h.x.l.j.j.j.x.j.j.j.j.j.j.j.j.j.j.h.j.j.g.y.a i = & v v c T ^ z i , ; , H P.R T (.` a w 5 y 2.e ",
"g.h.j.x.l.l.l.b.x.h.h.g.h.j.j.h.j.b.l.b.b.h.h.v.k.V.c = u i & > l 3 - O & O O , Z A ` ` M 2.o.0 b 0 ",
"g.j.h.j.b.b.l.l.l.h.:.=.r.h.h.j.b.b.l.l.b.b.c.j.x.i.v d f Z Z K v Z v , , u , p > > 4 ` &XS.8.o.e e ",
"g.h.h.x.x.l.b.h.h.g.,.;.t.h.h.v.b.b.c.c.x.x.h.h.j.h.y.m Z Z F j > % X # u p u ` F C 2 L *X#X-.*.{ e ",
"g.h.h.x.b.c.b.v.h.c.h.g.h.h.b.c.b.c.b.c.b.b.c.b.x.l.n.p.2.y < > 1 f z z : # % f < F h Q Q #Xw.*.} 9 ",
"t.p.d.d.s.g.g.s.s.g.g.g.g.s.s.g.s.g.g.s.s.g.d.g.g.g.g.g.g.2.d h H J Z j , = $ % > z - Y 3 _ |.2.8 8 ",
"$.%.%.%.%.%.%.$.%.%.$.%.%.%.%.&.%.%.&.%.&.%.%.%.$.%.#. .%.#.s z Z : o o O + O > 3 > O f : f T E.V.0 ",
"9 9 e e e e e e e e e e e e e e 9 e } 9 9 } e e e n a 5 6 r b : F Z + 2 1 - o - , * X f n 7 w b N 0 ",
"t t } ..} } } ..} } ..e } e ..| ..e ..e ......t } ..t r b s 6 ; < i O O f J i o + X $ x O.......} t ",
">.,.,.,.<.<.<.<.w.w.r.,.r.r.<.,.,.<.<.,.r.r.w.<.r.,.,.<.q.8.2.r a ; o   @ k L   + , p 4.<.<.<.,.<.w.",
"k.g.1.g.h.h.h.h.h.h.h.h.h.h.l.h.h.h.h.h.h.h.h.h.h.h.h.h.g.h.s.o.V p # - n s T * * f 6.k.c.h.h.h.h.h.",
"g.k.g.h.j.h.v.h.j.v.h.c.n.n.l.h.j.j.j.h.h.x.x.x.h.h.g.k.t.t.;. .n p % n g.2.H D.y v K.c.c.h.c.h.h.h.",
"g.g.k.h.x.h.v.h.h.c.h.c.h.h.h.j.h.j.j.h.h.h.l.h.h.h.h.h.h.g.s.o.X.m % 3.g.h.B U V.l  Xb.c.h.c.c.c.h.",
"g.h.j.h.h.c.h.h.c.h.h.h.h.h.h.h.h.h.h.h.l.k.h.g.h.g.g.k.f.d.e.o. .r ; 2.g.s.1.5.C.5.U G.h.j.h.c.c.h.",
"g.j.h.j.v.v.j.h.h.g.h.g.g.d.d.d.d.s.1.t.e.t.e.,.w.w.w.9.9.9.8.} e e r w 0.s.t.k.y.p.0.7.k.h.h.c.c.h.",
"g.h.h.v.h.h.c.v.c.h.c.j.h.c.h.h.h.h.h.h.h.c.h.h.k.d.f.f.h.k.t.*. .e $.>.p.h.z.h.h.h.h.j.h.c.h.c.c.h.",
"g.h.v.j.v.v.c.h.h.v.h.v.v.c.c.c.j.j.j.v.v.v.c.c.c.<.d.c.h.h.d.&. .| @.,.g.h.h.h.h.h.v.h.v.h.h.v.c.c.",
"p.s.g.g.g.g.g.g.g.g.g.g.g.g.g.g.g.g.h.g.g.g.h.g.g.s.s.g.p.1.>.@.r e { -.9.w.e.t.e.d.d.f.d.d.s.d.d.g.",
"&.=.=.&.=.=.=.=.=.=.=.=.=.=.=.=.=.=.=.=.=.=.=.=.=.=.=.-.=.=.%.@.e 8 | $.&.&.=.=.&.=.-.-.;.;.=.=.=.=."
};
