/* XPM */
static char *bibas61022_1_removebg_preview_resized[] = {
/* columns rows colors chars-per-pixel */
"50 50 220 2 ",
"   c #0B0405",
".  c #0E0708",
"X  c #130709",
"o  c #15090A",
"O  c #1A0C0D",
"+  c #1D0F12",
"@  c #1E1214",
"#  c #230F13",
"$  c #241215",
"%  c #2B1416",
"&  c #261618",
"*  c #2B161A",
"=  c #2C1A1C",
"-  c #311619",
";  c #331B1D",
":  c #2E1D20",
">  c #351E21",
",  c #3A1D22",
"<  c #342123",
"1  c #3B2225",
"2  c #3C2429",
"3  c #3B282A",
"4  c #4A251C",
"5  c #592B1D",
"6  c #6D2F1C",
"7  c #752C16",
"8  c #792F16",
"9  c #742B19",
"0  c #792D18",
"q  c #7C3215",
"w  c #7C341A",
"e  c #7F3E19",
"r  c #43262A",
"t  c #472829",
"y  c #442A2D",
"u  c #583027",
"i  c #5C342D",
"p  c #462D31",
"a  c #4B2D32",
"s  c #512E34",
"d  c #4C3135",
"f  c #4E3338",
"g  c #493639",
"h  c #523136",
"j  c #54353B",
"k  c #5A363C",
"l  c #56393E",
"z  c #5A393F",
"x  c #692F21",
"c  c #683627",
"v  c #723A27",
"b  c #7C3E24",
"n  c #613B38",
"m  c #743D34",
"M  c #79422E",
"N  c #784638",
"B  c #553E43",
"V  c #5B3C42",
"C  c #633942",
"Z  c #673E47",
"A  c #45454B",
"S  c #594246",
"D  c #57555A",
"F  c #634047",
"G  c #63444A",
"H  c #6A444C",
"J  c #6B474C",
"K  c #62494E",
"L  c #724749",
"P  c #78504C",
"I  c #674851",
"U  c #6D4B52",
"Y  c #734C54",
"T  c #784B54",
"R  c #6E5156",
"E  c #6A5158",
"W  c #7B5757",
"Q  c #75555C",
"!  c #7B545B",
"~  c #575865",
"^  c #655C64",
"/  c #7C5C62",
"(  c #795D65",
")  c #65656F",
"_  c #69686D",
"`  c #7E6B6A",
"'  c #646573",
"]  c #74737C",
"[  c #86390F",
"{  c #8C3D0F",
"}  c #833616",
"|  c #863815",
" . c #8A3B15",
".. c #823518",
"X. c #84381A",
"o. c #8A3A19",
"O. c #913F18",
"+. c #843C22",
"@. c #8F400F",
"#. c #93420F",
"$. c #8C4317",
"%. c #944312",
"&. c #994613",
"*. c #9D4916",
"=. c #95441B",
"-. c #9B461A",
";. c #97481A",
":. c #A24B16",
">. c #A74C17",
",. c #A34B1B",
"<. c #A75018",
"1. c #AC521B",
"2. c #B3561D",
"3. c #B6581E",
"4. c #BB5B1E",
"5. c #834625",
"6. c #87482A",
"7. c #984A24",
"8. c #9E542C",
"9. c #864933",
"0. c #834839",
"q. c #934E30",
"w. c #8D523E",
"e. c #92543C",
"r. c #9F5E3C",
"t. c #A54C21",
"y. c #AD5224",
"u. c #A8582A",
"i. c #B45622",
"p. c #B65921",
"a. c #B65A26",
"s. c #BC5B22",
"d. c #A25334",
"f. c #A35932",
"g. c #B5602F",
"h. c #BC612A",
"j. c #B36133",
"k. c #B6673D",
"l. c #C2601F",
"z. c #C25F23",
"x. c #C15F28",
"c. c #C56223",
"v. c #CC6626",
"b. c #CF6827",
"n. c #C56429",
"m. c #CE6728",
"M. c #C7682F",
"N. c #CE6829",
"B. c #D06727",
"V. c #D06826",
"C. c #D06628",
"Z. c #D06829",
"A. c #C26A36",
"S. c #CB6B33",
"D. c #CD713E",
"F. c #895849",
"G. c #935843",
"H. c #9B5D43",
"J. c #87585D",
"K. c #965E50",
"L. c #95604E",
"P. c #8B6458",
"I. c #986556",
"U. c #A96444",
"Y. c #B66B45",
"T. c #A86C57",
"R. c #AE735A",
"E. c #B77458",
"W. c #845761",
"Q. c #835C64",
"!. c #8A5B65",
"~. c #8B5E69",
"^. c #915F69",
"/. c #83646B",
"(. c #896669",
"). c #8C646C",
"_. c #93646D",
"`. c #936B68",
"'. c #866873",
"]. c #8C6B72",
"[. c #966771",
"{. c #936B72",
"}. c #9B6C75",
"|. c #8D7277",
" X c #95737B",
".X c #9C737B",
"XX c #97787B",
"oX c #A56E61",
"OX c #A67262",
"+X c #B37967",
"@X c #A47679",
"#X c #CA774D",
"$X c #C37C63",
"%X c #BC856F",
"&X c #C68264",
"*X c #8B7880",
"=X c #997881",
"-X c #A57D85",
";X c #A97B84",
":X c #89848B",
">X c #8B8C97",
",X c #978D94",
"<X c #98939C",
"1X c #A58485",
"2X c #A8838B",
"3X c #B68888",
"4X c #AF908F",
"5X c #AC8C96",
"6X c #B18790",
"7X c #B48A93",
"8X c #BA969B",
"9X c #A29BA2",
"0X c #B69AA1",
"qX c #BC9DA5",
"wX c #A5A5A8",
"eX c #B6A8B2",
"rX c #BBB9BC",
"tX c #C79996",
"yX c #C5A3A8",
"uX c #D8D8D9",
/* pixels */
"1.2.2.2.2.2.2.1.1.2.2.2.2.2.2.2.2.1.2.2.2.2.1.2.2.2.1.2.2.2.2.2.2.2.1.2.2.2.1.1.&.%.[ q 7 [ #.<.2.2.",
"c.c.n.v.c.v.v.v.v.v.v.n.v.c.v.c.v.v.v.c.v.v.v.c.n.v.v.v.v.n.v.c.v.v.v.n.c.l.c.c.s.1.&.[ 7 q %.4.c.v.",
"c.v.m.m.b.b.m.m.B.B.v.B.m.m.b.b.b.b.m.b.v.B.B.v.m.V.v.V.b.m.m.m.m.m.b.b.c.2.c.m.m.z.2.#.q [ #.4.v.m.",
"c.v.v.b.b.b.b.b.B.B.B.B.m.V.V.B.V.b.b.b.C.C.B.Z.B.v.B.B.V.m.m.m.Z.v.m.v.c.c.v.v.x.z.1.[ q @.*.h.k.b.",
"c.v.B.Z.V.m.v.B.Z.m.Z.v.Z.v.C.Z.m.m.Z.Z.v.v.Z.B.m.m.B.v.b.b.m.V.B.v.m.s.<.2.c.B.C.z.p.7.9.G.W ` I.v.",
"c.v.Z.v.v.B.B.Z.m.Z.m.C.C.Z.v.m.m.V.v.Z.v.B.v.Z.B.Z.m.v.m.b.b.b.v.v.v.s.1.4.b.B.B.D.&X,X9X:X' ^ Y.c.",
"n.v.Z.m.m.Z.v.Z.m.m.m.m.m.Z.C.m.m.B.Z.Z.Z.v.v.B.B.m.b.b.b.v.b.b.B.v.c.c.c.c.c.M.&X0XeX>X) ~ ~ W v.v.",
"c.b.v.B.m.Z.v.Z.Z.m.C.C.Z.v.Z.Z.V.v.B.v.Z.Z.B.v.m.c.c.b.b.v.b.c.v.z.z.z.z.4.k.3X9X>X' ' ] ] ~ F.c.c.",
"c.v.v.b.C.C.C.C.C.C.C.C.m.v.B.v.B.Z.B.Z.Z.B.C.v.c.,.1.c.m.b.b.b.v.v.z.V.D.$X8X<X>X_ _ wXwX<X] H.c.c.",
"c.v.v.b.C.C.C.C.x.C.C.C.Z.v.m.m.C.v.B.v.Z.v.v.v.c.1.2.n.b.b.c.b.v.l.#XtXyXyX5X^ D A _ wXuXrXXXu.l.l.",
"i.3.p.p.i.s.s.s.s.s.s.i.p.4.p.p.s.s.4.4.s.i.s.s.3.2.2.p.3.3.4.3.i.#X7X0XtX0X;X).S D ] rX,X'.K.>.3.p.",
"w ..X.................} ....w q q } } ....} ........} } ..| | 5.T.qXyXqX.X;X.X_.Q D >X*X( Q +.| ....",
"..} } } | | | | ..| } | | ..7 9 0 8 } 8 } } | } | | } } | | G.@X7X8X2X-X[.H ^.@X X(.'.'./ m | | | | ",
"y.3.3.3.i.s.3.s.i.s.4.p.s.>...0 | { { #.,.2.3.s.s.3.3.s.a.+XtXyXqXqX XT }.W.a G _.{.W.U 0.i.3.3.3.i.",
"c.c.b.b.C.v.v.m.C.C.v.v.n.3. .7 [ { &.1.z.v.x.C.m.S.#X#X@X7X8X;X;X6X;XW.L }.!.Z C J.Q.G.n.v.m.m.v.v.",
"c.b.b.V.v.v.c.z.z.z.z.z.z.1. .} { &.3.v.B.B.B.Z.$X3X6X;X.X;X7X;XW.^.@X_.Z ^.!.k h ! U.n.Z.m.m.Z.v.B.",
"l.v.v.C.B.z.z.z.z.l.4.3.2.<. .{ &.3.v.v.b.m.N.&X`.Q {.! -X@XT ).!.C [.!.T !.Y Z L f.Z.Z.Z.m.v.m.V.v.",
"c.v.C.C.B.B.B.C.z.v.v.c.c.1.%.[ &.l.B.v.b.M.OX4X Xd , p ! 2X_.Z W.n W.!.Z C J F.a.m.m.m.B.Z.m.v.v.v.",
"v.v.B.v.B.C.B.C.C.v.v.v.c.2.o.q -.4.v.B.b.U.g Q.U # % d y n !.J.T C L [.Z k 9.1.v.v.m.b.v.v.z.4.v.b.",
"c.c.v.C.B.z.z.x.z.s.i.i.i.-.q 9.K.i.l.l.S.@X].W d . > J Z t k ^.^.T C ! C 9.x.z.v.m.m.m.m.m.z.3.c.b.",
"n.v.v.Z.C.C.z.x.z.z.z.s.i.d.0.L 0.i.z.v.R./ / p U R d a V p : L T Y Z J e.v.b.b.v.v.B.V.V.B.m.v.b.N.",
"v.v.v.v.B.B.C.C.v.C.C.C.n.Y.{.L $.1.h.+X{.Q / K y V U B V h B H U V Y w.M.c.b.b.Z.m.m.v.v.v.v.m.b.N.",
"c.v.v.m.B.B.C.4.3.z.v.C.c.Y.P.e =.f.T.).B d G Q R p % j p > y ~.!.H e.l.l.c.c.b.m.Z.b.n.4.4.v.v.m.m.",
"n.m.v.v.B.B.z.4.2.l.l.2.6.N w.L.`./.B : 3 p < $ < a > # r s Z ).W G.n.b.V.V.b.m.v.v.B.v.3.4.v.v.m.m.",
"i.p.s.4.s.4.4.4.3.1.*.8.W `.@XXXXXXX|./.].K 3 = = p S 1 & % h H N a.4.s.s.s.s.p.s.s.s.4.3.p.s.4.s.s.",
"o.o.o.| o.o.o.o.o.} H.@X2X=X.X].Q R Q {.|.(. X/.R l 3 < < * ; u X. . .o. . .$.X.o. . . . . . . . .| ",
"8 q 8 q q 8 q q q +.@X}..X/ z h y < * > k 1 r p = #   o O % 5 q q q q q q q q q q q q q q w q q 8 7 ",
"O.#.#.#.#.#.#.#.%.H.|.! W Y < o X o .   & 1 1 < $ O = r r X.&.#.#.#.#.#.#.#.%.%.#.%.$.%.%.%.&. .q 7 ",
"3.4.4.h.k.Y.Y.T.oX1X].R k Y g 3 < $ o .   O y h h d y 2 M 4.4.4.s.4.h.l.4.4.c.4.4.4.l.4.4.4.3.-.} 9 ",
"c.b.S.I.W.(./.XX|.E R R ! {.{._.W z y < ; $ $ & < y d J g.l.v.m.v.v.b.c.l.v.M.c.M.c.v.c.c.n.s.-.X.q ",
"c.b.e.3 = 3 S  X].z R /.G Y J.J.z < p y ; < & O $ h W H.l.h.h.4.s.s.4.4.4.3.3.3.3.2.2.2.2.2.1.*. .} ",
"n.j.u 5 b c Q ].U T Q.F , - ; y l Q Y j S l & * r u f.c.4.s.c.4.s.p.p.p.p.4.p.3.p.p.3.s.p.2.1.&.{ q ",
"n.u.u.Z.M.N ` / V B > O O % O - 3 h ; - t r & j F.n.v.v.c.c.c.c.s.s.i.i.i.t.>.t.7.-.O.,.O.O.O...7 9 ",
"c.v.V.V.R.XX( 3 < > p , r , , V z k J S S p a n j.Z.v.v.v.v.n.c.v.v.n.x.z.l.z.z.s.x.i.i.y.y.t.O.q q ",
"n.v.m.V.3X=XK < B B ( r a 1 # X @ > h S z k n f.b.b.m.m.v.b.l.l.b.c.z.c.l.4.4.4.i.2.1.1.>.,.t.O.| q ",
"n.v.v.Z.%XE E d B > p # # > k j d 2 ; < t 6.s.Z.m.b.b.b.B.B.c.c.b.b.c.B.B.z.l.l.z.z.l.z.z.z.i.O.| q ",
"s.l.M.&X/ 3 I = B , # % % , s V J S d r 5.c.c.c.c.c.z.c.c.z.c.c.l.l.l.l.l.l.l.l.c.c.s.4.i.2.>.o.7 7 ",
"=.r.`.U p ; s O - 2 > o # o O X ; S l i ;.&.$.$.&.&.&.&.&.&.%.&.&.&.&.&.&.&.&.#.&.&.-.&.O.O.O.[ 7 9 ",
"w m c x 6 v p X * 2 : o * 2 > O V S ; x w 5 4 t w q 8 8 8 8 8 q 8 8 8 8 } q q 8 q q } 8 8 } } 8 7 9 ",
"w w ......+.k # o o O 3 G d + o y < - 5 u c w w w X.X.w } } } 7 9 9 7 8 7 8 } | ..q 8 } } 8 } | q ..",
"1.2.2.3.p.a.9.t 2 +   I f @   O - v 5.6.t.u.p.2.3.3.3.3.3.3.2.O.8 q [ {  .-.1.4.2.1.2.3.3.i.p.3.4.i.",
"c.c.4.v.v.b.m.G.a * * U i 5.; + a k.V.B.v.v.v.v.v.v.C.C.v.v.s.-.} } { #.<.z.v.v.v.3.4.v.v.v.v.v.c.b.",
"c.c.h.c.b.v.N.E.V 4 K.V 7.Z.M # a j.m.m.v.m.m.m.v.v.z.x.z.i.>.| 7 q { <.c.b.v.v.b.v.v.v.v.B.v.v.B.v.",
"c.M.v.v.m.m.M.+Xs F.W.+.v.Z.8.% M M.m.m.v.m.m.b.v.C.v.m.v.z.4.O.q } #.3.l.b.m.m.b.m.v.v.B.v.B.Z.B.v.",
"c.v.b.v.m.m.Y.P q.G.q.v.m.Z.5.4 y.v.v.v.n.n.c.v.c.z.v.x.z.z.s.O.[ [ @.2.c.l.4.m.b.V.v.v.v.b.b.B.B.v.",
"c.v.b.b.m.m.f.a.A.f.c.c.c.u.b y.z.l.4.s.s.s.s.3.i.i.y.i.y.y.t...q q  .1.l.4.s.z.c.c.c.v.c.V.b.b.v.v.",
"v.c.b.b.b.b.b.V.m.b.v.m.B.h.n.m.b.b.v.v.m.C.v.v.v.z.z.x.v.v.s.-. .q %.3.c.b.b.b.b.v.V.V.v.v.v.b.b.v.",
"c.b.b.b.b.b.b.v.b.b.V.m.V.B.B.B.v.V.B.v.B.B.B.B.v.4.z.B.v.v.z.&. .} @.2.c.b.c.c.b.b.V.v.V.v.v.v.B.B.",
"4.c.n.c.l.c.c.l.c.c.c.l.c.c.c.c.c.c.l.c.c.c.c.v.c.h.l.c.s.s.2. .q q  .*.i.p.a.s.s.s.x.z.z.z.z.z.z.z.",
"*.*.:.*.:.:.:.:.:.:.>.>.:.<.:.:.:.<.:.:.<.:.:.:.:.:.:.:.:.:.*. .q 8 } %.&.*.:.:.:.:.,.:.>.,.:.:.>.>."
};