/* XPM */
static char *sukuna_face_jujutsu_kaisen_png_image_704081694682948c0dgcjt6a0_removebg_preview_resized[] = {
/* columns rows colors chars-per-pixel */
"50 50 215 2 ",
"   c #120E10",
".  c #2A1C18",
"X  c #38231C",
"o  c #221F22",
"O  c #2C2021",
"+  c #4F2B1C",
"@  c #752D16",
"#  c #792F16",
"$  c #732B19",
"%  c #792D18",
"&  c #7C3215",
"*  c #7E3319",
"=  c #7B361C",
"-  c #472C2B",
";  c #723B2E",
":  c #6A3E3A",
">  c #7B4125",
",  c #604230",
"<  c #613B40",
"1  c #774845",
"2  c #785747",
"3  c #8A3B0F",
"4  c #833616",
"5  c #863815",
"6  c #8A3B15",
"7  c #823519",
"8  c #86391A",
"9  c #8A3A19",
"0  c #913F18",
"q  c #853C21",
"w  c #93420F",
"e  c #8E4010",
"r  c #8D4218",
"t  c #944213",
"y  c #994513",
"u  c #9D4915",
"i  c #94411B",
"p  c #9B461A",
"a  c #A14615",
"s  c #A24B16",
"d  c #A34B1B",
"f  c #AA4F1B",
"g  c #AB5117",
"h  c #AD521B",
"j  c #B3561D",
"k  c #B6581E",
"l  c #BB5B1E",
"z  c #88472B",
"x  c #9C4921",
"c  c #934E2D",
"v  c #9B5135",
"b  c #A14920",
"n  c #AA4F22",
"m  c #AD5123",
"M  c #A65528",
"N  c #B45621",
"B  c #B65921",
"V  c #B75925",
"C  c #BB5B22",
"Z  c #A85D38",
"A  c #B55D36",
"S  c #BE6229",
"D  c #AD6032",
"F  c #AC613B",
"G  c #B4623B",
"H  c #BE6738",
"J  c #C45F1F",
"K  c #C2601F",
"L  c #C15F23",
"P  c #C15F28",
"I  c #C56223",
"U  c #CC6626",
"Y  c #CF6827",
"T  c #C66429",
"R  c #CE6728",
"E  c #C6682E",
"W  c #CE6829",
"Q  c #D06627",
"!  c #D06926",
"~  c #D06628",
"^  c #D06828",
"/  c #C16635",
"(  c #CC6730",
")  c #C56B34",
"_  c #C96A33",
"`  c #C46A3B",
"'  c #CD6E3C",
"]  c #D6763D",
"[  c #874C43",
"{  c #8A5745",
"}  c #985548",
"|  c #A35B4A",
" . c #A45A48",
".. c #A45B52",
"X. c #97654A",
"o. c #8E6051",
"O. c #9D6E53",
"+. c #956D5A",
"@. c #9C735C",
"#. c #AB664B",
"$. c #B5684A",
"%. c #A86A53",
"&. c #B76A55",
"*. c #BA6A5B",
"=. c #A8755A",
"-. c #BA7756",
";. c #B27D5C",
":. c #A27565",
">. c #A67B64",
",. c #AB7E64",
"<. c #B37E63",
"1. c #A87675",
"2. c #CA6D44",
"3. c #C46F4B",
"4. c #CA714B",
"5. c #CE7B4D",
"6. c #D47845",
"7. c #D0724A",
"8. c #C36E57",
"9. c #C57557",
"0. c #CB745A",
"q. c #CB7D5A",
"w. c #D47959",
"e. c #C26E61",
"r. c #C67564",
"t. c #CE7563",
"y. c #D77C67",
"u. c #D87C63",
"i. c #B9805C",
"p. c #AA816F",
"a. c #BB8565",
"s. c #B6896C",
"d. c #BA8868",
"f. c #BD9171",
"g. c #D9844B",
"h. c #C8845C",
"j. c #D4875A",
"k. c #E08D53",
"l. c #CC8662",
"z. c #C68D6A",
"x. c #D38C65",
"c. c #DC836C",
"v. c #D9896A",
"b. c #CB926C",
"n. c #D69569",
"m. c #DC936B",
"M. c #DC8370",
"N. c #C19373",
"B. c #CC9B78",
"V. c #E3866C",
"C. c #E5886A",
"Z. c #E6896E",
"A. c #E09168",
"S. c #E29B6D",
"D. c #E28671",
"F. c #E58A72",
"G. c #E88973",
"H. c #EB8D73",
"J. c #F28F75",
"K. c #EC9175",
"L. c #E79A73",
"P. c #ED937A",
"I. c #F29376",
"U. c #F3957A",
"Y. c #F69A7C",
"T. c #FA9D7D",
"R. c #DCA377",
"E. c #D4A47E",
"W. c #E8A677",
"Q. c #E2A57A",
"!. c #F3A97A",
"~. c #F3B27D",
"^. c #BC9183",
"/. c #CE9382",
"(. c #F49C82",
"). c #FA9F80",
"_. c #D6A180",
"`. c #DBAC83",
"'. c #DBB194",
"]. c #E8AE81",
"[. c #F7A283",
"{. c #FAA283",
"}. c #F7A987",
"|. c #E3B286",
" X c #EEB786",
".X c #E4B68A",
"XX c #EBB48A",
"oX c #F3B383",
"OX c #F5BB86",
"+X c #F9BA86",
"@X c #F3BC8B",
"#X c #F5AC94",
"$X c #EAB898",
"%X c #D9B5AA",
"&X c #E6BBA7",
"*X c #FEC087",
"=X c #F6C18C",
"-X c #FBC38C",
";X c #EDC294",
":X c #EFC899",
">X c #F4C594",
",X c #FBC791",
"<X c #FDCB94",
"1X c #F6C89B",
"2X c #FBCD9A",
"3X c #FDD097",
"4X c #FED39D",
"5X c #FFD99D",
"6X c #FDD5A2",
"7X c #FEDBA4",
"8X c #FFD5A9",
"9X c #FFDDAA",
"0X c #F2CCB2",
"qX c #FFE0AB",
"wX c #F4D7CA",
/* pixels */
"h j h j j j j j h j j j j j j j j h j j j h j j j j j f j h j j j j j j j j j f y t 5 # @ 3 0 g j j ",
"I I U T I U I T U U U I U I I U U U U I U U U I I U U U U U I U I U I U I C I I l h y 3 @ 4 0 l L J ",
"I U R Y Y Y ! ! Y Y Y Y W Y Y Q Y Y Y Y R Q R R Y Y Y Y Y Y W Y Y Y Y Y I k I W Q L g w & 5 t J Q Y ",
"I U U Y Q ! Y ! Q Q Q Q Y Y R Q Y Y Y Y Q Q Q Q Y Y R Q R Y W W W Y Y U T L U U P C j 6 & 5 y C Q Y ",
"I U R Q Q W Y Q ~ W R W ~ Q Q W Y Y Q Q Y Y ~ W W W ~ W R R Y Q U Q Y l g k R Q Q U l 0 4 4 0 B P U ",
"I R Q R Y Q Q W Y ~ ~ Q W R R W W ~ Q Q R Y W W W R R ^ Q Y Y Y U U U C g l L Q U R L 0 4 3 y C Q L ",
"I Y Q W Y R W W R W R W W Q ~ W R Q R G T ~ W U ~ W G T Y Y U U R U L U L L L L J L n 3 # 3 0 C U U ",
"I U R Q W ~ Y W Q W ~ ~ W R W ~ Q R ( *.T ~ / F W Z e.' U T T U R P L L L L C k h n 0 4 @ # 3 j L L ",
"I U U W ~ ~ ~ ~ ~ ~ ~ ~ R R R Q Q Q ' M.2.Q 2.4.H *.V.7.Q 4.2.R R ( R P Q R L U L J h 0 4 3 0 l U U ",
"I U W U Q ~ ~ ~ ~ ~ ~ P ~ Q T ( Q R 7.H.C.7.u.0.w.H.J.w.7.D.w.( 8.4.R R R Q R U J g y 3 4 3 0 j l J ",
"N B B B B B C B B C C C B j $.8.A / 4.K.U.I.I.Z.J.U.J.t.y.J.w.u.8.V B N k V N a y 0 3 3 @ 4 0 g j k ",
"* 7 4 7 7 7 7 7 7 7 7 7 7 7  .y...M.Z.I.T.T.Y.Y.T.Y.J.y.H.G.G.P.<.} v 8 q 7 4 7 & & % @ $ @ % 7 7 7 ",
"7 4 4 5 8 6 6 6 9 5 5 7 9 q  .U.c.F.H.U.[.{.T.T.Y.T.H.H.P.H.T.Y.U.M.| }  .6 4 6 3 3 5 7 6 7 8 6 5 4 ",
"N k k N B B k B B k k k V | | (.T.T.K.U.{.{.[.Y.J.T.).T.H.Y.T.).).U.D.P.$.B B k j k k l k j k k k k ",
"I I U Y R U U Y ~ Q Q R / 0.&.P.{.{.Y.(.T.T.T.U.V.Y.T.Y.P.U.{.}.}.).T.Z.( R Q Q L R Q Q U U R R R U ",
"I U Y Y Q U L L L L L P A t.D.(.{.}.}.#XU.T.T.K.y.J.J.y.*.D.T.).{.}.T.I.w.7.2.^ ~ Q Q ~ R R R Y Q R ",
"L U Y Q Q L U L L L l j A u.).T.{.{.{.{.U.G.T.C.8.y.&.1 ..G.Z.c.G.(.).T.).P.9.T W W W W R Y R R Y W ",
"U U Q Q Q Q Q Q P ` _ _ ' C.).T.{.!.).U.H.y.K.v.Z.m.l.&.*.&.} } t.G.U.).U.w.V l U U W W Q Q R R Y Y ",
"I U U R Q Q R L R 0.(.P.U.).).P.c.Z.V.K.oXoXoX~.-XoX-X+X~.~.l...y.G.I.).G.4.h h L R W W Y R L l U Y ",
"I I U R R L L P L A M.).{.{.{.(.y.r.oX<X2X|.XXd.|.].>X3X<X<X+Xm.C.T.T.T.I.G.5.I Y U W Y Y Y L j I U ",
"I U Y W ~ Y P U U A 8.Y.Y.U.U.U.Z.L.<X4X6XN.f.B.z.p.|.4X3X3X<X-XL.G.).T.C.' W Y Y R R R Q Q R U W W ",
"T Y Y Y Q Q Q R U I 3.D.U.T.).J.L.,X4X6X4Xs.>.`.E.`.=X,X-X*X,X3XoXc.U.U.I.q.) U R R Y U U R Y Y W W ",
"I U R R Q Q R l k T ' v.).{.).G.+X4X4X4X2X=X1X>X>X<XR.-.S.~.-X3X@X&.{ *.8.$.H T Y Y Y U j l Q Q Y Y ",
"I U U R Q Q P k N 3.v.K.T.Y.V.y.,X4X,XOXW.n. X3X3X-X-.$.h.L.].@X@Xz.O - < z S U R U R U j l U U U Y ",
"N B C C C C C l k h M t.K.t...b.2X2X,XoXn.&.q.oX<X*Xj.%.:.^.'.&X1Xn..   + c B C C C l l k C C C B C ",
"4 9 5 5 9 6 6 6 9 8 v r.%.1 , b.2X1XR.s.+.o.9.A.-X3X X_.%X1.&XwX@X~.,   + 6 6 r 6 9 6 r 6 6 6 5 5 5 ",
"& & & & # & * # @ ; [ 1 : - O i.2X$X&X%Xp.%X.XQ.b.`.3X8X0X/.&X_.R.Q.{ X.9.> & & @ & # # & * * * & $ ",
"6 t w t w w 0 y t t r > i + o o.,X$XwXwXp.&X1X>.+.s.f..X6X6X1XXXE.d.i.q.-.x w w w w t t t t t 6 4 @ ",
"k k l l K l l l l l C l l c X 2 OXR._.$X1X1X_.f.2X6X:X:X8X9X8X.Xp.=.h.-.x.S l K S K l K l l k u 4 $ ",
"I U Y U Y Y U Y U Y Y U U j.z.O.z.`.XX1XqX:X:X9X7X7X5XqX9X9X7X6X;Xa.n.3.x.E I T U I I I I T B u 5 % ",
"I Y R R Y Y Y Y Y W W Y U h.v.S.s.>.>X9XqXqXqX9X2X2X4XqXqX7X7X7X;Xi.h.l.j.k k k j k k k j h h y e 4 ",
"T Y R W Y Y Y Y W Y Y Y U g.S.j.d.>.6X9XqXqXqXqX5X4X5X7X5X4X3X7X`.;.n.W.` k k B k B B B B k h u 6 * ",
"I U Y W R Q W ~ W R U I I 6.W.q.m.a.$XqXqXqXqX5X5X5X3X>X=X~.=X5Xf.=.W.5.m h n b b x p x 0 0 0 7 @ @ ",
"I U U Y ~ Q R R Q P j s B Y g.m.x.b.f.7X5X3X<X-X=XOX~.=X,X3X5X4X@.X.E I I J C C C C N N m n b 0 & @ ",
"L U Y W W R W Y Q U g g C Y U 6.!.W.,..X4XOX=X,X-X-X-X-X2X5X5X|.2 D I I K l k l N j j g f d b i 3 & ",
"I U R W W Q W Y Q Q U J I Y Q Q ] 6.h.>.1X5X5X5X,X=X=X<X3X3X.X+.=.Y I I U J J K L L K L C C N p 5 & ",
"C C J I K L K J K L I I I J I J I K ) =.p..X4X2X:X2X7X;XE.@.O.i.E I I K K L K K K I C l k j d 9 @ @ ",
"t p y t y y y y y y y y y y y y y y y M -.O.s.@.+.B.6X`.s.R.S.D y w t y y y y y y y p y y 0 0 3 @ $ ",
"& % * * & # & * & # & & & & & & & & & & 9 #.%.i.d.B.3X=XW.~.Z & & # & & & & & & * * & & & & # # $ $ ",
"& = 4 * 4 7 & 4 * 4 7 4 & 4 7 7 8 & 4 & & 4 v j.W.~.*X*XW.F & # $ $ @ & # & & 4 4 * * 7 4 4 4 4 * 7 ",
"h j N k k k k k k N k k j k k j j k k j N N j N _ g.k.g._ j j 0 & & 5 3 3 p h k j g f k k k k k k N ",
"I S l I Y Y U U U Y U U R R R R U U U U U Y U U U U Q L U U J 0 & 4 3 w g L U R U k l U Y R U U Y I ",
"I I C U Y Y ! U Y Y R R Y Q R R Y Y Y Y Y W R R Q U U L C B f 7 @ & w g L U Y Y Y U U Y U U U Y Y Y ",
"I U U U Y U U ! Y Y R U Q Q U U Y Y Y Y Y Y Y R U U U R R L C y 3 & w k J U U W Y Y Y Y Q R R W Q Q ",
"I U U U U Q U U Q U U Y U Q R J I U U Y U R I U U L U L L L V 0 4 & w k I K l Y ! U U Q U U U Q Q U ",
"T U Y Y Q Q ! U U U I I L L L L K K l C V V B j j N N m n n b 9 & & e g L K B T U U J J U U U U U U ",
"I I U Y ! U ! ! Q Q U U Y Y Q Q U U U U R Q U U U L P T R U C u 6 & e k Y I U I U U U ! ! U U ! Q U ",
"I U Q Y U ! ! U U ! Q Y Q ! Q Q Q ! U U Y Q Y Q R k L Q Q Y C p 3 4 e k I I Y U U U ! U ! ! U U Q Q ",
"I I T I I I I I K I I I I I I I U I I I I I I I I K K I S C h r & & 6 u m B B C C P P L I L I I L U ",
"u u s u s s s s s s s s s s s s s s s s s s s g s s s u s s u 6 * @ 4 y u u s a a d a d s s s s s y "
};
