/* XPM */
static char *vvq2d7jg8m471_removebg_preview_resized[] = {
/* columns rows colors chars-per-pixel */
"50 50 225 2 ",
"   c #040404",
".  c #090606",
"X  c #0B0905",
"o  c #030708",
"O  c #0A0708",
"+  c #060B0B",
"@  c #0A0C0C",
"#  c #170A07",
"$  c #110D0E",
"%  c #0C100F",
"&  c #13110D",
"*  c #1F1309",
"=  c #070F10",
"-  c #110F10",
";  c #071112",
":  c #0C1313",
">  c #0A1718",
",  c #0D1B1C",
"<  c #121413",
"1  c #191515",
"2  c #141917",
"3  c #131618",
"4  c #131C1C",
"5  c #1B1D1B",
"6  c #290C07",
"7  c #270E0A",
"8  c #340F07",
"9  c #330D09",
"0  c #29170E",
"q  c #34110C",
"w  c #3E140D",
"e  c #351A0C",
"r  c #3D1C0D",
"t  c #241712",
"y  c #2C1D13",
"u  c #231E19",
"i  c #361B12",
"p  c #1A211E",
"a  c #2E2016",
"s  c #24201E",
"d  c #2B221B",
"f  c #352113",
"g  c #3C2313",
"h  c #32251C",
"j  c #3E2C1F",
"k  c #171F20",
"l  c #142222",
"z  c #1A2423",
"x  c #1C2827",
"c  c #162829",
"v  c #1C2B2B",
"b  c #232523",
"n  c #2C2A26",
"m  c #232D2E",
"M  c #22302E",
"N  c #243232",
"B  c #2A3534",
"V  c #2B3939",
"C  c #343130",
"Z  c #343636",
"A  c #43160A",
"S  c #4C140D",
"D  c #56160E",
"F  c #53190E",
"G  c #5D1B0C",
"H  c #4D1A12",
"J  c #481D1A",
"K  c #551C13",
"L  c #5A1A13",
"P  c #661D0C",
"I  c #721B0C",
"U  c #671C12",
"Y  c #731E13",
"T  c #46220C",
"R  c #442511",
"E  c #4C2411",
"W  c #492913",
"Q  c #462B1C",
"!  c #5B2314",
"~  c #552916",
"^  c #542C14",
"/  c #5B2D13",
"(  c #58251A",
")  c #59331A",
"_  c #71240D",
"`  c #65310F",
"'  c #6E310D",
"]  c #7A370D",
"[  c #682919",
"{  c #6D2B19",
"}  c #752D16",
"|  c #792E16",
" . c #72261C",
".. c #752C19",
"X. c #792F18",
"o. c #6D3815",
"O. c #693518",
"+. c #7C3215",
"@. c #743914",
"#. c #7D3B13",
"$. c #73321D",
"%. c #7B3118",
"&. c #723B1B",
"*. c #4C3324",
"=. c #4C3B2D",
"-. c #583726",
";. c #453D34",
":. c #4E3D34",
">. c #5A3736",
",. c #633726",
"<. c #6E3C21",
"1. c #753825",
"2. c #7B421C",
"3. c #46423D",
"4. c #53483D",
"5. c #67422A",
"6. c #714224",
"7. c #7B4727",
"8. c #77492D",
"9. c #654633",
"0. c #644836",
"q. c #744E35",
"w. c #78523A",
"e. c #2C4446",
"r. c #34494A",
"t. c #3E504F",
"y. c #395455",
"u. c #3D6163",
"i. c #454A44",
"p. c #4D4F46",
"a. c #53564E",
"s. c #4B5D53",
"d. c #415A5B",
"f. c #565A52",
"g. c #62574B",
"h. c #4F6055",
"j. c #6C6355",
"k. c #436666",
"l. c #4C7778",
"z. c #656D61",
"x. c #637367",
"c. c #892A0E",
"v. c #853B0F",
"b. c #8C3E0E",
"n. c #823514",
"m. c #893112",
"M. c #843813",
"N. c #8C3D13",
"B. c #85351B",
"V. c #853919",
"C. c #8A3A19",
"Z. c #913E16",
"A. c #903B1A",
"S. c #8C400F",
"D. c #95440E",
"F. c #9E450D",
"G. c #874315",
"H. c #8F4212",
"J. c #85441C",
"K. c #89441B",
"L. c #944312",
"P. c #9A4513",
"I. c #9C4913",
"U. c #95411B",
"Y. c #9B461B",
"T. c #944C1F",
"R. c #9F491A",
"E. c #9F511F",
"W. c #A44C15",
"Q. c #AA4D16",
"!. c #A14A1A",
"~. c #A4481A",
"^. c #AD5115",
"/. c #A6511C",
"(. c #AE531C",
"). c #B3551D",
"_. c #B5581D",
"`. c #BC5C1E",
"'. c #834621",
"]. c #874B26",
"[. c #954D21",
"{. c #8D512B",
"}. c #9C5326",
"|. c #93512A",
" X c #985429",
".X c #884738",
"XX c #944D39",
"oX c #8C5736",
"OX c #955537",
"+X c #A94A21",
"@X c #A35324",
"#X c #AB5523",
"$X c #AE5822",
"%X c #A75729",
"&X c #A35A2D",
"*X c #AB5B2B",
"=X c #B25521",
"-X c #B55A23",
";X c #BC5C22",
":X c #B85E29",
">X c #A35939",
",X c #BC6027",
"<X c #BC612A",
"1X c #A76135",
"2X c #BA6631",
"3X c #C05D1E",
"4X c #C15E22",
"5X c #C56224",
"6X c #CC6526",
"7X c #CE6826",
"8X c #C56429",
"9X c #CE6728",
"0X c #CE6829",
"qX c #D06626",
"wX c #D26827",
"eX c #D06628",
"rX c #D16929",
"tX c #C06630",
"yX c #875E40",
"uX c #9B5943",
"iX c #9A6144",
"pX c #AA6F47",
"aX c #B07747",
"sX c #AD8151",
"dX c #568384",
/* pixels */
"#X(.).).(.).=X=X=X=X#X).).(.(.(.(.=X).(.=X=X(.).=X).(.).(.(.(.).).=X).).=X=X/.P.Z.N.N.n.} %.L.Q.(.#X",
"V.V.C.B.B.C.B.C.C.C.B.C.C.B.V.n.V.C.C.C.V.C.C.C.C.V.C.V.C.C.C.C.C.C.V.B.C.B.V.n.n.| n.|  ...+.V.V.C.",
"} | | ..| | | | X.X.| | | X. .{ } | | | } | %.} } } %.} | X.| } X.| } | | } | | | ..| .. ...| } } ..",
"n.| n.n.B.n.n.B.n.+.n.n.n.n.}  .| +.+.+.+.n.n.n.M.n.n.n.n.n.n.+.n.n.n.n.m.n.n.n.n.n.n.n.n.+.n.n.n.n.",
"Y.R.!.Y.~.~.~.R.+XR.R.!.R.U.%. .n.n.v.N.N.R.!.~.!.R.R.R.R.!.~.R.R.!.!.!.R.R.R.R.~.R.~.~.R.R.~.R.R.~.",
"-X`.;X;X;X;X`.;X;X;X;X;X;X(.C.X.v.b.S.D.Q.-X-X;X;X;X3X;X`.;X3X`.`.3X3X4X;X5X;X`.`.;X`.`.;X`.4X;X;X;X",
"4X5X6X6X6X6X6X6X6X6X6X6X6X).C.$.n.N.D.^.-X5X6X6X5X6X6X8X6X9X6X;X6X6X6X6X6X6X6X6X6X6X6X6X6X6X6X6X4X6X",
"5X6X6XqX6X6X6X9X9X6X6X6X6X-XN.{ ,.N.I.&.OX7X6X<X*X8X6XoX].0X9X7.:XrX7X0X0X0X7XqX9XeXeXqX6X9X9X9XqXqX",
"5X6XqXqXqX6X4X4X4X6X4X5X5X(.b.^ ) F.H.*.%X8X:X|.oX|.8X&X*.#XqX6.'.qX7X7XqX7X7XqX0XqX6X9X9X9X0XrXqX6X",
"5X6X7XqXeX6X6X4X4X4X`.`.`.Q.N.i o.^.&.6.%X4X:X0.3.8.5X*X,.7.wX{.,.6XqX7XqX7X7XqX6XqXqX0X9X0X9XrX6XqX",
"5X6X7X7X9X4X6X4X4X3X_._.^.W.N.i &.`.O.{.@X&X:X;.C 0.8X&X8.6.wXOX*.6XrX0XqXqX6X5X6XqXqX0X0X0X6X7X6XeX",
"5X6XqXqX9X6X6X6X4X6X4X3X;X(.G.y 6.,X,.oX;X-.Q s - u :.|.8.2.wXOX*.6X0X7XqX6X5X5X6X7X7X0X9XqXeX9XqXqX",
"5X6X7XeXeXqX6XqXwXqXeXeX6X=XN.y 0.5X2.5.0X|.b - O - ;.1X*.2.wXw.) 0X0X7X6X6X`.`.6X6X7X0XeXqX6X6X6XqX",
"5X7X7X7XqXqXeXeXqXqXeXeX6X).U.i C ,X[.s 7.g.5 x t.k Z g.5 @X2XC &.qX6X7XqX5X^.Q.5X7X0X0X6XqX5X;X6X9X",
"5X6X6X6X6X6X6X6X4X4X4X4X*X@XV.K 3 6.=Xa z 3   N k.k   1 n *X,.5 }.qX7X8X<X5X_.^.6X7X7X0X6X6X4X).5X7X",
"5X5X6X8X5X5X;X;X4X;X-X+X*.:.0.:.5 u =.b O . O - 1 - @ . - n 5 u q.yXw.-.].7X5X5X6X6X9X0XrX6X4X).5X6X",
"4X6XeXeX4XeX4X4X4X4X-X:X1.>.yXj.a.Z p.h.s.s.z.x.z.z.z.f.a.f.s.a.f.g.>.*.4XrX6X7X6X6XqXrXrXrX6X4X6X9X",
"6X9XeXrXeXeXeX4X4XeX4X4X+XuX.XXXuX.X.XuXiXuXpXsXsXaXaXpX>X|..X.X.X1.XX4XrXeX7X9X0X6XqXqXrXqX6X9X0X9X",
"8X9XeXeXeXeXqXqXeXeXeX4XtX+X1.J F P P _ | m.C.Y.T.R.P.N._ P F G F ,.5XwX9X9X9X9XeX6X7XqXqXqX6X0X0X0X",
"4X6XeXeXeXeXqX3X4XeXeXeXeX-XK.,.H w 8 8 A K ( L P ! ~ A 8 6 7 w O.}.5X5X6X6X9X6X9X0X0X6X5X6X6X7X0X9X",
"8X6X6X9XqXqX6X3X=X4XeXwX6X(.Z.N.$.! 6 9 w D U Y Y U D S q 6 q } W.3X`.3X4X5X5X6X0X0X6X6X_.`.6X6X9X6X",
"6X6X6X9XqXqX6X).=X4XqX4X_.I.N.v.H.%. .Y q ( L  .K  .L J w U } _.3X3X3X5X6X6X6X6X0X0XqX6X).`.6X7X9XqX",
"8X6X9X6XqXqX6X`.).4X4X).F.S.M.v.P.(.+XY 9 K L D K S L S A I U.0X6X6X6XqXqXqX6X6X6X6X6X6X).`.6X6X9X6X",
"4X5X6X5X6XqX3X3X3X3X).F.D.N.n.n.L.,X!.L 6 7 # b b k t 7 6 S n.,X6X6X5X5X5X6X6X6X6X6X5X5X`.3X5X6X6X6X",
"#X-X-X).-X;X).-X).Q.P.b.b.M.%.+.#.R S K $ z r.l.dXu.e.k o S S e V._._._._.-X-X)._._._._.).-X-X)._.).",
"C.C.Z.Z.Z.Z.Z.Z.Z.C.C.n.+.%...} W X A S $ d.l.u.u.u.u.e.$ H L O Q K.N.C.Z.L.N.N.Z.Z.Z.Z.Z.Z.L.L.L.Z.",
"| | +.+.n.X.n.n.n.| %.n.| { [ $.i.5 S S 1 r.z O o O v y.2 ! ] 5 t.1.| O.+.+.%.%.+.+.%.+.+.+.+.+.%.} ",
"| | X.X.| | X.| X.X.X.| } [ ~ $.4.B P ! 1 B +       - N < ^ K.r.4.1.X./ $.%.%.%.%.%.%.} %.%.%.| }  .",
"+.v.v.v.n.n.v.n.v.v.m.n.] / / #.n.*.+.` - 4         . > O ^ T.-.o.@.' W ] v.] G.M.M.M.M.M.#.n.v.%.} ",
"Z.D.D.D.L.D.D.F.D.D.D.L.#.r 2.P.P.D.W./ O               . W W.D.G.2.o.` S.D.D.D.D.D.L.P.P.P.D.Z.M.} ",
").^._._._._._._._._._._.E.T (._.).(.Q.^ .               . R W.Q.).2.2.o.J.)._._._._.-X_._.).(.P.M.} ",
"3X5X5X6X5X5X5X5X5X5X5X5X,X^ -X8XoX0.P.E . .         .   . A A.4.j.&XJ.W 2.,X7X5X5X6X5X5X5X5X;XY.n...",
"5X6X6X9X0X6X6X6X6X6X6X6X5X/ $X2Xs.N A.A 2 t.i.B m v N V @ i c.n y.1X&.i #XqX7X7X7X6X6X6X6X6X;XY.n.X.",
"5X6X6X6XqX6X7X6XqX6X0X6X7Xo./.8XQ # c.r 2 d.dXl.l.u.u.e.- 7 I # i *X/ R `.`.,X`.4X`.;X`.`.`.=XR.C.+.",
"5X6X7X6X6X7X0X6X7XrX0X9XrXK.&.,X^ . G 0 @ k Z B m B v k @ = 9 # 0 /.O.@._.).).(.(.(.(.(.(.^.Q.L.D.n.",
"5X6XqX0XrX6X0X9X0X6XrXqX,X2.^ 6.u   # % + + @ @ O @ + + = = o o 0 |.O.J.;X`.$X$X`.`.`.`.`.-X_.W.S.n.",
"8X6X7X0XeX0X9X0X7X7X8X7X6.1 f a % o o ; + o + o O + = o = + o + & Q h j J.%X'.[.=X:X-X:X-X-X).Y.V.+.",
"6X6X6X0X6XeX9XeX8X[.}.7.d + o = o = ; ; ; = 4 % o : , + + = + =   + > ; t Q d &.B.B.U.A.C.C.C.%.....",
"8X6X6X0XqXeX9XrX Xa *.p = ; : ; o > 4 , , , v , > , l > , : : > = ; ; , + % % j -.1.'.Y.A.[.A.B.} ..",
"5X6X6X7XeX0XrXrX6.% c > % > , p 4 x l c p l x c c k c l c > , , > 4 > l l = o : 3 d <.;X;X-X+XA.+.} ",
"5X6X6X7X7X8X X{.h l M 4 p : x p v M l v , x M x l l v v z : c , l c l x B l l l 3 = f !.(.!.!.U.n.+.",
"5X6X6X8X6X Xh p c 4 v M c > p 4 l N v c ; p M l 4 : N Z p , x p p c v c x b l > k k u K.!.R.R.P.N.n.",
"8X6X7X<XoX9.1 p p p x x p 2 N p ; z p z ; l z z l @ 5 N o > p 2 > p 4 2 2 2 2 : ; = 1 6.7.}.=XI.N.+.",
"8X6X7X$X3.d 5 % 2 2 2 2 % 2 x + @ : 2 z % 4 2 2 5 : @ p o + < % % < < 2 : 2 : : - + - b =.&X-XU.n.| ",
"5X5X5X].z % : @ % : < % + % @   @ : 2 2 + @ o % 2 @   % o o @ + % % % : : : & % @ + + - s '.@XC.} } ",
"(.(._.G.) R g g f y g f 0 * X   O O & & X X # t a y e r T T / ` / ^ W R g f W W f i g W ) K.P.V.} } ",
"H.L.D.D.P.D.D.L.S.@.S.S.S.b.] ' ' ` ` ' ' ] ] v.v.b.D.D.D.Z.L.L.P.Z.L.L.b.D.D.D.S.L.U.P.D.D.L.v.| ..",
"+.n.n.#.n.n.n.M.n.n.n.n.M.M.m.v.M.n.n.n.v.v.M.M.n.n.n.n.n.n.n.n.n.] #.M.n.] n.n.V.n.M.M.M.n.n.n.} [ ",
"} } %.} %.%.+.} X.| } } %.| X.X.X.X.%.} | X.%.X.X.X.X.X.| | | | } } | | | } | | X.X.| | | %.| %.} [ ",
".. .} } } } } } } } } } } } } } ..} } } } } } } } } ....} ..} } { } ......} | | } } | } } } } } } } "
};
