/* XPM */
static char *Screenshot_from_2025_02_04_13_52_55_removebg_preview_resized[] = {
/* columns rows colors chars-per-pixel */
"50 50 213 2 ",
"   c #0E181F",
".  c #12171D",
"X  c #251E1E",
"o  c #24221F",
"O  c #0E1922",
"+  c #141D25",
"@  c #1D1E23",
"#  c #141D28",
"$  c #241E21",
"%  c #152026",
"&  c #16222C",
"*  c #1A242D",
"=  c #1C2632",
"-  c #1E2A34",
";  c #1F2C39",
":  c #1F313C",
">  c #282424",
",  c #382825",
"<  c #342D2D",
"1  c #3A312C",
"2  c #222B35",
"3  c #272C35",
"4  c #232E3B",
"5  c #322D35",
"6  c #23303E",
"7  c #2B333C",
"8  c #353236",
"9  c #512C1D",
"0  c #5D341F",
"q  c #6D2618",
"w  c #732B16",
"e  c #7A2F15",
"r  c #752D19",
"t  c #782D18",
"y  c #62351D",
"u  c #7C3115",
"i  c #773319",
"p  c #442C23",
"a  c #562D21",
"s  c #45332D",
"d  c #5B3421",
"f  c #563828",
"g  c #493931",
"h  c #673C2A",
"j  c #763B24",
"k  c #734227",
"l  c #7D4323",
"z  c #694438",
"x  c #724734",
"c  c #79503D",
"v  c #252F40",
"b  c #233040",
"n  c #373C43",
"m  c #3B434A",
"M  c #47454B",
"N  c #4A4B51",
"B  c #525254",
"V  c #555559",
"C  c #7B5A49",
"Z  c #6C5A5D",
"A  c #76645A",
"S  c #575F65",
"D  c #5D6167",
"F  c #796B67",
"G  c #6C6D70",
"H  c #777477",
"J  c #8E3E0E",
"K  c #813514",
"L  c #853915",
"P  c #8B3C13",
"I  c #853619",
"U  c #863919",
"Y  c #8C3D19",
"T  c #913F19",
"R  c #93420F",
"E  c #8F4214",
"W  c #944312",
"Q  c #994613",
"!  c #9D4915",
"~  c #94411A",
"^  c #9B451C",
"/  c #A54D17",
"(  c #A94F16",
")  c #A54C1B",
"_  c #A94E1C",
"`  c #A75019",
"'  c #AC521B",
"]  c #B3561C",
"[  c #B8571F",
"{  c #B6581E",
"}  c #BA5B1E",
"|  c #884A28",
" . c #944D23",
".. c #914E2B",
"X. c #9D5429",
"o. c #824B37",
"O. c #825237",
"+. c #935532",
"@. c #955B3A",
"#. c #A54B21",
"$. c #A45424",
"%. c #AB5423",
"&. c #AB5725",
"*. c #AC5B2B",
"=. c #B35521",
"-. c #B55B24",
";. c #BC5C22",
":. c #B35C29",
">. c #A65E33",
",. c #BC612A",
"<. c #A7613A",
"1. c #B76432",
"2. c #C15E23",
"3. c #C56224",
"4. c #CC6626",
"5. c #CF6827",
"6. c #C3642B",
"7. c #CE6728",
"8. c #CF6828",
"9. c #D06627",
"0. c #D16827",
"q. c #D06728",
"w. c #D06828",
"e. c #855A48",
"r. c #905E42",
"t. c #9A6444",
"y. c #8B6B5A",
"u. c #956B53",
"i. c #A56A48",
"p. c #AE734F",
"a. c #886D68",
"s. c #887368",
"d. c #967868",
"f. c #887C75",
"g. c #957B7A",
"h. c #A47D68",
"j. c #8C817A",
"k. c #9A887D",
"l. c #A48574",
"z. c #AD8875",
"x. c #767C80",
"c. c #7A8185",
"v. c #868586",
"b. c #968B86",
"n. c #8C8F91",
"m. c #929190",
"M. c #9D9697",
"N. c #99999C",
"B. c #A7948A",
"V. c #B59B8A",
"C. c #A69B96",
"Z. c #BB9699",
"A. c #AAA19B",
"S. c #BBA395",
"D. c #A5A7A7",
"F. c #B6AAA6",
"G. c #BAB3AD",
"H. c #AEB2B0",
"J. c #B1B3B2",
"K. c #BDB8B2",
"L. c #B5BBBB",
"P. c #BDBDBA",
"I. c #C7878B",
"U. c #C29591",
"Y. c #CE9699",
"T. c #CA9C9E",
"R. c #C8A89A",
"E. c #C3ADAC",
"W. c #D7AAAA",
"Q. c #CCB7AC",
"!. c #D6B1AF",
"~. c #C8BAB6",
"^. c #DAB5B3",
"/. c #E3BDBB",
"(. c #C3C1BE",
"). c #CDC4BC",
"_. c #BEC4C6",
"`. c #C3C5C3",
"'. c #C7C7C4",
"]. c #CBCBC5",
"[. c #C4CBCC",
"{. c #CBCDCC",
"}. c #D7C8C5",
"|. c #DDCDCB",
" X c #CFD2CF",
".X c #D3D2CE",
"XX c #DFD1CE",
"oX c #D5D6D2",
"OX c #D9D7D2",
"+X c #D6DBD7",
"@X c #DBDBD6",
"#X c #DCDEDA",
"$X c #EACAC5",
"%X c #E7D1CE",
"&X c #F0D6CE",
"*X c #E6D8D5",
"=X c #EBDBD5",
"-X c #F0D5D1",
";X c #F5DDD6",
":X c #F4DEDA",
">X c #E2E3DD",
",X c #F4E0D6",
"<X c #F4E1DA",
"1X c #DDE3E0",
"2X c #E8E7E2",
"3X c #E5E8E5",
"4X c #EDECE6",
"5X c #EDEDE9",
"6X c #F1EFE7",
"7X c #F2EFE9",
"8X c #EFF0EA",
"9X c #F1F0E7",
"0X c #F2F1EB",
/* pixels */
"5.5.4.q.9.5.9.9.9.9.9.q.q.9.9.9.9.9.9.5.9.9.9.9.9.9.q.4.7.9.9.7.5.5.8.5.5.5.5.3.3.4.5.4.2.2._ J e K ",
"5.5.5.7.q.7.7.9.q.q.7.7.7.7.7.q.7.q.7.7.7.7.4.q.4.:.i.u.:.q.7.7.5.0.5.5.8.4.;.` ' 2.4.4.9.2.2.T K K ",
"5.7.5.5.9.7.7.7.7.7.7.7.7.q.q.7.7.7.q.5.q.7.;.>.u.A. Xb.:.7.5.4.3.0.0.4.4.4.3.{ ;.3.3.4.4.2.] W K K ",
"5.5.5.7.7.5.7.q.7.7.7.9.7.7.7.7.q.q.9.4.-.t.k.P.3X0X1Xu.4.7.4.;.<.,.3.3.3.2.2.2.2.;.;.{ =.%.^ K e e ",
"9.9.q.q.9.9.9.9.9.q.6.1.4.7.7.7.q.9.;.@.b.oX3X7X0X0X(.+.' >.d.B.Z +.1.1.<.<.@.i.i.i.i.$.2.;._ R u K ",
"7.9.2.q.7.7.2.7.9.2.h.g.2.4.4.7.2.@.b.{.5X7X7X6X0X0XJ.C B.'.2X'.N.~.).].}..XOX#X#X`.d.%.] ( Q R K K ",
") ) #.) #.#.#.=._ +.~.B. .#.#. .y.`.5X7X7X7X7X7X0X9X>X*X5X9X5X5X7X5X8X5X0X9X0X2XH.C ~ W P P P I r t ",
"e K K t K K K K e f.3XF.j K j m.#X0X7X7X7X7X6X6X0X9X0X0X9X5X0X7X9X9X0X9X5X4X'.y.j e u u u u e e t r ",
"#.) ) ) ) _ ) _ ..~.0X.XC e.G.5X7X9X6X7X7X7X7X7X9X9X6X7X6X7X7X7X6X7X7X6X6X].F | / ` ` ` _ _ ) ) _ ) ",
"4.4.7.9.4.4.4.3.h.2X6X4XK..X5X7X7X6X6X9X7X7X7X6X9X7X7X7X6X7X7X6X6X7X7X6X4X4X@X~.l.i.-.3.4.5.4.5.5.4.",
"5.7.9.9.4.2.2.;.V.5X6X6X7X0X0X7X6X6X6X6X7X7X6X6X7X7X7X7X7X7X6X7X6X7X6X6X9X7X7X0X5XoXB.t.-.4.0.5.7.7.",
"4.7.9.9.4.4.4.6.Q.6X6X6X7X7X7X7X7X6X7X6X6X6X6X6X7X7X7X7X7X7X7X7X6X6X6X6X9X7X0X7X5X5X9XoXC.i.1.7.7.7.",
"4.9.5.2.9.9.9.1.).0X7X7X7X7X7X7X7X6X7X7X6X5X4X5X7X7X7X6X7X7X7X7X6X7X6X6X9X6X0X7X5X5X>XF.S.l.O.3.7.9.",
"4.4.2.o.*.2.4.>.~.7X7X7X7X7X7X7X6X6X0X7X#XOX5X5X7X5X6X7X7X7X7X7X7X7X7X7X7X6X6X6X7X7X#Xf.X.3.5.5.5.q.",
"4.5.4.r.g.i.-.*.E.0X0X7X7X7X7X7X7X6X5X@X].+X3X*X2X5X6X7X7X0X7X7X7X7X9X7X7X7X9X6X9X8X0X>Xj.| 3.0.q.5.",
"4.5.5.2.d.`.B.e.A.0X9X0X7X7X7X7X6X>XOX>X.X#X#X2X2X6X5X5X5X<X6X7X6X7X7X7X7X7X7X9X9X#X#X>X+Xm.O.,.4.4.",
"5.0.9.9.*.B.4XoXOX7X7X7X7X7X7X7X4X@X>X0X6X9X0X0X0X6X>XoX X#X>X4X5X5X0X7X7X7X7X0X5X{.`.[.[._.N.C ' { ",
"3.3.3.3.3.+.C.4X0X0X0X5X5X*X{.J.M.N.A.D.D.H.J.P.(.P.J.'.#X3X5X8X0X3X3X5X7X5X5X*X3XoXJ.H s.F s.A  .} ",
"^ Q ~ ..u.k.A.1X2XoXJ.n.G N n 4 4 4 4 4 4 4 7 7 7 7 m m N S G x.v.n.n.H.2X6X7X'.[.1XD.k P Y E E E ~ ",
"u u i h C y.j.v.D n 3 - = ; 4 v 4 b 4 4 4 v 4 4 6 6 ; ; : - - = - - 4 7 H oX5X[.L.+X_.z i u i i u u ",
"W R W Q R Q P > 4 ; b ; 6 6 6 v 6 6 4 v v 7 6 6 6 6 6 6 : b b : : b : 4 - V `.[.L.H.L.A E W Q Q ! Q ",
"3.3.3.3.3.3.&.1 v v b b 6 b 6 7 6 6 6 v 6 v 6 6 6 b b b b b b b b b b : 4 ; m x.L.c.C C -.3.3.3.3.3.",
"4.5.5.5.5.5.-.< 6 6 b 6 6 6 b 4 6 6 v 4 4 6 6 b 6 6 b b b b b b v 4 4 v v 4 4 = c.D.t.' } } ,.} } } ",
"5.5.5.8.5.w.&.< : 6 b 6 6 6 b v 6 6 7 v b b 6 6 6 6 b : b b b b v v ; v 2 4 4 N V B +.{ { { { { { ] ",
"4.5.7.7.7.*.C 5 2 4 b v v v 4 4 6 6 v 4 6 6 b 6 b 6 6 6 6 6 6 6 2 2 2 5 M F Z.$X$XC.o.#.#.#.)  .^ ^ ",
"4.4.5.5.;.e.T.a.N n 7 3 4 - - 2 ; ; 4 ; ; ; ; : 4 4 2 2 2 2 2 5 M Z g.Z.W.$X$XW.W.-Xl.=.=.;.=.' _ %.",
"3.5.0.5.,.e.T./.%X~.F.D.M.b.H H v.M.C.n.G B M n n n M V F f.B.S.^.%X&X&X-X;X/.Y.W.=Xh.] [ [ ' ] ' _ ",
"3.0.5.4.2.| g.=X<X<X<X<X<X<X:X%X!.W.W.!.&X%X}.}.}.}.%X=X:X:X:X:X<X:X<X,X:X-X!.^.$XE.@.3.3.3.3.3.2.;.",
"/ / / ) #.! x '.<X<X<X<X:X,X,X$XU.I.I.I.$X;X;X:X<X=X:X:X:X:X:X:X=X<X>X}.}.%X%X~.B.O.! / / ` ) ) ! / ",
"u K u K K K r y.~.=X<X<X:X;X;X;X!.I.I.T.-X:X:X:X:X:X:X:X:X:X:X:X%X~.d.z h o.c j w u K K u K K K u K ",
"U U U U U U U U o.h.Q.$X=X:X2X:X-XT.U./.:X:X:X:X<X:X:X<X*X|.~.b.e.j w q r t u u u I L U U I I U U L ",
"} } ;.;.3.2.;.;.;.;.;.p.h.z.R.Q.^.E.E.}.XXXX*XXX|.~.F.m.a.r.>.' ;./ P t K P J W / ] } 3.{ ] { } 2.2.",
",.} 4.5.4.0.4.5.5.5.0.4.4.3.3.6.>.g 5 8 M M N M n n 2 >  .4.2.2.2.) e t K R Q ] 3.4.5.5.6.2.3.4.9.4.",
"3.4.5.5.0.4.5.4.4.0.4.4.5.5.0.0.#.X +   & & = = 4 4 4 3 s X.2.2.2.) K e K R ] 3.4.4.5.5.0.0.0.4.9.9.",
"4.5.4.5.0.4.4.4.0.0.4.4.3.4.4.} p   # & = = 2 ; ; : = - 4 s -.3.2./ J K K W { 3.3.} 4.5.0.4.4.4.4.4.",
"4.5.9.5.4.4.0.0.4.3.3.4.3.3.3.y + O 2 2 2 = 4 4 6 4 & 2 ; - h %.#.^ K e u ~ ' ;.} } 3.3.3.3.4.3.3.4.",
"3.9.0.4.5.0.0.4.0.4.4.5.0.0.$.o + # 4 2 - = 4 b 6 4 * - 6 : 1 ,.4.' T L K W { 3.5.7.4.4.4.0.4.0.5.9.",
"5.9.4.4.4.4.4.4.4.4.4.5.5.4.y + O 2 7 * = - 4 4 4 6 * - 6 6 2 | 2.) I K K J _ ;.2.2.2.4.4.3.4.4.5.5.",
"' ' ' ' ' ' ' ' ' ' ' ] ' Q X + & 4 4 = = = 4 4 6 6 & - 6 6 2 0 ) ! P K e P Q / ) ) ( / ) _ ` ` _ ' ",
"( ' ' ' ' ' ' ( ' ' ' ' ' y     - 4 4 = - - 6 b 4 6 * - 2 6 2 0 ' _ _ ) ) _ _ ( _ ' / / Q R P K e P ",
"4.3.4.4.3.4.4.4.4.4.4.4.,.p     2 4 4 ; - ; 6 4 4 : * 2 4 4 - z 6.4.6.7.4.4.5.3.2.2.3.3.} ' ! P e e ",
"4.4.5.9.8.5.5.0.0.4.4.&.y .   . & & * * * - - ; - - % * 2 4 - p ,.0.0.8.5.0.0.6.} } 4.0.5.2.] W u K ",
"5.5.9.q.w.5.9.9.0.{ 0 % + % % % + + + & * * = = - - - - * * & = s  .8.8.5.5.3.{ } 3.4.4.2.2.] P u u ",
"4.5.5.7.7.5.q.9.,.p + + + % % % # + + & - 2 4 4 6 : 4 4 4 4 2 6 4 3 f | $.3.} _ ] 3.4.4.9.4.} Q L L ",
"5.8.5.7.8.8.w.6.0 + % % % % % % % + # > , s 8 2 4 7 : 7 6 6 6 6 6 : ; 2 ,  .4.2.2.2.2.2.2.2.#.P u K ",
"4.5.7.7.w.8.:.d @ + + % % % @ +   o d $.3.6.*.k 1 2 : : : : : 6 : 6 6 6 2 | 3.2.2.2.} [ =.=.) K r r ",
"5.5.7.q.4.i , + + + % + + % + $ 0 $.4.0.0.0.0.0.,.l < : : ; 6 6 : : 6 6 3  .7.4.5.4.9.4.2.} / T K K ",
"3.4.3.3.3.=.l p % + + + + @ 9  .3.3.3.4.3.4.3.3.3.6.' l h f f s 1 1 < 2 < %.2.4.4.2.} ] ( / R J u K ",
"T ~ T T T ^ T Y r a , $ p q U ~ Y ~ ~ ~ T ~ ~ ~ ~ ~ ~ ~ E Y Y Y L U u a a ~ ~ ~ ~ Y Y K K K K e w r ",
"e e e e u u u e e K e w u e w q w t e e u e u u u t u u u u e u u i e u u u u u e u u u u u u e e t "
};
